<svg width="194" height="44" viewBox="0 0 194 44" fill="none" xmlns="http://www.w3.org/2000/svg">
<path d="M0 33.5472L8.26223 28.7197C9.94302 32.6471 12.8794 34.5904 17.051 34.5904C20.8176 34.5904 22.7414 33.4449 22.7414 31.1539C22.7414 29.8856 22.1339 28.9242 20.8783 28.2492C19.6835 27.5332 17.4155 26.6741 14.0539 25.7741C10.5303 24.8126 8.12047 23.7285 5.54865 21.7852C3.11859 19.7601 1.74155 16.7531 1.74155 12.8666C1.74155 8.9391 3.11859 5.8503 5.87266 3.49791C8.66724 1.14551 11.9681 0 15.7954 0C22.6806 0 28.0673 3.33426 31.1251 9.55277L23.0451 14.3189C21.5466 11.1278 19.4405 9.43003 15.7954 9.43003C12.9199 9.43003 11.2998 10.8824 11.2998 12.6416C11.2998 13.6643 11.7858 14.5848 12.7376 15.3622C13.7501 16.1395 15.7954 16.9986 18.833 17.8987L22.7211 19.1669C23.6121 19.4737 24.8069 20.0056 26.184 20.8033C27.6218 21.5193 28.695 22.3171 29.4241 23.1557C30.9226 24.7922 32.2996 27.5742 32.2996 31.0107C32.2996 35.0609 30.8618 38.2111 27.9863 40.5635C25.1107 42.8545 21.3441 44 16.727 44C8.20147 44 2.38957 40.0112 0 33.5472Z" fill="white"/>
<path d="M64.5782 0.837891V10.1452H53.8049V43.1605H44.2264V10.1452H33.4531V0.837891H64.5782Z" fill="white"/>
<path d="M77.0141 33.8532H93.7613V43.1605H67.4355V0.837891H93.4575V10.1452H76.9938V17.1615H91.959V26.346H76.9938V33.8532H77.0141Z" fill="white"/>
<path d="M115.407 0.837891C119.538 0.837891 123.001 2.22887 125.816 5.0722C128.631 7.91553 130.068 11.2907 130.068 15.3409C130.068 19.3911 128.631 22.7663 125.816 25.6096C123.001 28.453 119.538 29.8439 115.407 29.8439H109.129V43.1401H99.5508V0.837891H115.407ZM115.407 20.8026C118.343 20.8026 120.49 18.4502 120.49 15.3614C120.49 12.2726 118.343 9.92018 115.407 9.92018H109.129V20.8026H115.407Z" fill="white"/>
<path d="M149.471 0.837891C153.603 0.837891 157.065 2.22887 159.88 5.0722C162.695 7.91553 164.133 11.2907 164.133 15.3409C164.133 19.3911 162.695 22.7663 159.88 25.6096C157.065 28.453 153.603 29.8439 149.471 29.8439H143.194V43.1401H133.615V0.837891H149.471ZM149.471 20.8026C152.408 20.8026 154.554 18.4502 154.554 15.3614C154.554 12.2726 152.408 9.92018 149.471 9.92018H143.194V20.8026H149.471Z" fill="white"/>
<path d="M177.252 33.8532H194V43.1605H167.674V0.837891H193.696V10.1452H177.232V17.1615H192.197V26.346H177.232V33.8532H177.252Z" fill="white"/>
</svg>
